<?xml version="1.0" encoding="utf-8"?>
<!-- Generator: Adobe Illustrator 27.7.0, SVG Export Plug-In . SVG Version: 6.00 Build 0)  -->
<svg version="1.1" id="Layer_1" xmlns="http://www.w3.org/2000/svg" xmlns:xlink="http://www.w3.org/1999/xlink" x="0px" y="0px"
	 viewBox="0 0 404.9 385.4" style="enable-background:new 0 0 404.9 385.4;" xml:space="preserve">
<style type="text/css">
	.st0{fill:#FFFFFF;}
	.st1{opacity:0.7;fill:#FFFFFF;enable-background:new    ;}
	.st2{fill:none;stroke:#263238;stroke-width:1.1133;stroke-miterlimit:10;}
	.st3{fill:#263238;}
	.st4{fill:#FFFFFF;stroke:#263238;stroke-width:1.1133;stroke-miterlimit:10;}
	.st5{clip-path:url(#SVGID_00000061465612674900636310000001343873406932269191_);}
	.st6{opacity:0.3;fill:#FFFFFF;enable-background:new    ;}
	.st7{fill:none;stroke:#263238;stroke-width:1.1133;stroke-linecap:round;stroke-linejoin:round;}
	.st8{clip-path:url(#SVGID_00000102505277256954447320000013124804338140894374_);}
	.st9{opacity:0.5;fill:#FFFFFF;enable-background:new    ;}
	.st10{fill:#FFFFFF;stroke:#263238;stroke-width:1.1133;stroke-linecap:round;stroke-linejoin:round;}
	.st11{clip-path:url(#SVGID_00000134230566547818016900000013039181162146952863_);}
	.st12{clip-path:url(#SVGID_00000056402911598103773880000007686684743392000661_);}
	.st13{clip-path:url(#SVGID_00000126319844380001017090000003902237423272565433_);}
	.st14{clip-path:url(#SVGID_00000172440763799271938730000013651663447377801893_);}
	.st15{fill:none;stroke:#263238;stroke-width:3.3399;stroke-linecap:round;stroke-linejoin:round;}
	.st16{fill:none;stroke:#263238;stroke-width:1.1133;stroke-linecap:round;stroke-miterlimit:10;}
</style>
<g id="freepik--background-simple--inject-18">
	<path class="st0" d="M0.1,207.4c0,0,2.3,72.7,63,121.1s144.7,51.9,212.8,56.5s120.3-33.9,128.2-92.2s-44.1-75.3-72.3-141.6
		s-25.7-88.1-85.4-128.9S93.3,6.6,44.3,76.5S0.1,207.4,0.1,207.4z"/>
	<path class="st1" d="M0.1,207.4c0,0,2.3,72.7,63,121.1s144.7,51.9,212.8,56.5s120.3-33.9,128.2-92.2s-44.1-75.3-72.3-141.6
		s-25.7-88.1-85.4-128.9S93.3,6.6,44.3,76.5S0.1,207.4,0.1,207.4z"/>
</g>
<g id="freepik--Floor--inject-18">
	<line class="st2" x1="27.7" y1="324.8" x2="18.6" y2="324.8"/>
	<line class="st2" x1="399.6" y1="324.8" x2="42.3" y2="324.8"/>
</g>
<g id="freepik--yarn-ball--inject-18">
	<ellipse class="st3" cx="265.1" cy="354.8" rx="30.4" ry="8.4"/>
	<path class="st4" d="M108.1,373.8c-31.6,0-36.3-4.6-36.8-8.3c-0.2-1.6,0.3-3.1,1.4-4.2c8.5-8.9,57.6-5.2,125.6,0.1
		c9.5,0.7,19.3,1.5,29.3,2.2c68.6,5.1,96.3,4.4,102-2.5c1.2-1.4,1.4-3.2,0.8-5.5c-2.7-10-39.1-10-52.9-9.2c-0.7,0-1.2-0.5-1.3-1.1
		c0-0.7,0.5-1.2,1.1-1.2c0,0,0,0,0,0c5.3-0.3,51.6-2.6,55.3,11c0.9,3.1,0.5,5.6-1.2,7.7c-6.4,7.8-32.6,8.6-104,3.3
		c-10.1-0.8-19.9-1.5-29.3-2.2c-64.8-5-115.9-8.9-123.7-0.8c-0.6,0.6-0.9,1.4-0.8,2.3c0.3,2.4,6,7.6,52,5.8
		c25.7-1,51.6-3.8,51.8-3.9c0.7,0,1.2,0.5,1.2,1.1c0,0.6-0.4,1.1-1,1.2c-0.3,0-26.2,2.8-52,3.9C119.1,373.7,113.2,373.8,108.1,373.8
		z"/>
	<circle class="st0" cx="253.8" cy="326.3" r="35.8"/>
	<g>
		<defs>
			<circle id="SVGID_1_" cx="253.8" cy="326.3" r="35.8"/>
		</defs>
		<clipPath id="SVGID_00000011733522498922278540000009385174265168203936_">
			<use xlink:href="#SVGID_1_"  style="overflow:visible;"/>
		</clipPath>
		<g style="clip-path:url(#SVGID_00000011733522498922278540000009385174265168203936_);">
			<path class="st0" d="M253.8,362.1c19.8,0,35.8-16,35.8-35.8c0-7.2-2.2-14.3-6.2-20.2c-0.4,15.6-9,38.6-53.8,46.5
				C236.2,358.8,244.9,362.1,253.8,362.1z"/>
			<path class="st6" d="M253.8,362.1c19.8,0,35.8-16,35.8-35.8c0-7.2-2.2-14.3-6.2-20.2c-0.4,15.6-9,38.6-53.8,46.5
				C236.2,358.8,244.9,362.1,253.8,362.1z"/>
			<path class="st7" d="M271.5,340.4c-6.4-6.2-14.1-10.8-22.6-13.5C257.3,329.5,265.1,334.1,271.5,340.4h1.9
				c4.2-4.2,7.8-8.9,10.8-14.1c-16.8-17.7-33.1-15.9-33.1-15.9s16.4-1.8,33.1,15.9c0.9-1.6,1.7-3.2,2.3-4.6
				c-7-9.8-19-16.4-25.5-17.4l-1.5-0.4c-2.3-0.4-4.7-0.5-7-0.1c2.3-0.4,4.7-0.3,7,0.1l4.3-12c-2-0.6-4.1-1-6.2-1.2
				c-2.8,4.5-9.9,18.8-9.9,47.1c0-28.3,7.1-42.6,9.9-47.1c-1.2-0.1-2.4-0.2-3.6-0.2c-1.4,0-2.7,0.1-4,0.2
				c-4.2,6.4-12.3,21.5-12.8,44.1C245.5,337.9,256.7,340.1,271.5,340.4z M279.5,333.1c-14.3-13.9-30-14.6-30-14.6
				S265.3,319.2,279.5,333.1z"/>
			<path class="st7" d="M237.1,334.9c0.5-22.6,8.6-37.7,12.8-44.1c-3.3,0.4-6.5,1.2-9.6,2.5c-7.6,11.1-11.9,24.2-12.4,37.6
				C230.9,332.4,234,333.8,237.1,334.9z"/>
			<path class="st7" d="M240.3,293.2c-12.6,5.2-21.2,17.1-22.1,30.7c2.9,2.7,6.2,5,9.8,6.9C228.5,317.4,232.8,304.4,240.3,293.2z"/>
			<path class="st7" d="M286.5,321.7c0.8-1.7,1.4-3.5,2-5.3c-1.5-5.1-4.1-9.8-7.6-13.8l-2.8,9.2l2.7-9.2c-2.2-2.5-4.7-4.6-7.5-6.4
				l-3,11.4l3.1-11.4c-2.9-1.9-6.1-3.3-9.5-4.2l-4.3,12C266.1,304.9,276.2,308.8,286.5,321.7z"/>
			<path class="st7" d="M289.8,328c0-0.5,0-1,0-1.6c0-3.4-0.5-6.8-1.4-10.1c-0.6,1.8-1.2,3.6-2,5.3l0,0l0,0
				c-0.4,1.1-0.9,2.1-1.5,3.1c0.1,0.1-0.9,1.5-0.8,1.6s-1,1.8-1,1.7c-2.4,4.2-9.6,12.3-9.4,12.3c-0.1,0-3.9,3.4-5.9,5.1l0,0
				c-3.7,3.1-7.7,5.9-11.9,8.5h0.3h-0.3c-4.1,2.5-8.3,4.7-12.7,6.7c3.5,1.1,7.1,1.7,10.8,1.7c0.6,0,1.2,0,1.8,0
				C263.1,358.3,274.7,349.2,289.8,328z"/>
			<path class="st7" d="M289.8,328c-15.1,21.2-26.8,30.3-34,34.2C274.3,361.3,289,346.5,289.8,328z"/>
			<path class="st7" d="M226,348.8c4.4,5.6,10.4,9.7,17.2,11.9c4.4-2,8.6-4.2,12.7-6.7C247.3,355.5,234,351.6,226,348.8z"/>
			<path class="st7" d="M255.9,354c4.2-2.5,8.1-5.3,11.9-8.5c-25.8,2.6-41.7-5.4-48.5-9.9c1.3,4.8,3.5,9.3,6.6,13.2
				C234,351.6,247.3,355.5,255.9,354z"/>
			<path class="st7" d="M267.8,345.5c2-1.7,3.9-3.4,5.6-5.1h-1.9c0.1,0.1,0.3,0.3,0.4,0.4c-0.1-0.1-0.3-0.3-0.4-0.4
				c-14.7-0.2-25.9-2.5-34.3-5.5l0,0c-12.3-4.3-16.7-8.8-18.9-10.9c-0.1,0.8-0.1,1.6-0.1,2.5c0,3.1,0.4,6.2,1.2,9.2
				C226.1,340.2,242,348.2,267.8,345.5z"/>
		</g>
	</g>
	<circle class="st7" cx="253.8" cy="326.3" r="35.8"/>
</g>
<g id="freepik--Character--inject-18">
	<path class="st0" d="M190.2,286.5c-22.3,0-35.6-19.8-40.4-37.1l-0.2-0.6c-1-3.5,0.9-7.1,4.4-8.1c3.5-1,7.1,0.9,8.1,4.4
		c0,0.2,0.1,0.3,0.1,0.5l0.1,0.5c3.6,13.2,13.4,28.3,29.2,27.5c6-0.2,11.6-3,15.5-7.5c8.7-9.9,12.5-31.5,11.7-42.4
		c-0.3-2.9,1.7-5.5,4.6-5.8c2.9-0.3,5.5,1.7,5.8,4.6c0,0.1,0,0.3,0,0.4c1,12.1-0.3,38.1-12.2,51.8c-6.2,7.3-15.1,11.6-24.6,12
		C191.7,286.5,190.9,286.5,190.2,286.5z"/>
	<g>
		<defs>
			<path id="SVGID_00000021821587462371446230000016908476217792587691_" d="M190.2,286.5c-22.3,0-35.6-19.8-40.4-37.1l-0.2-0.6
				c-1-3.5,0.9-7.1,4.4-8.1c3.5-1,7.1,0.9,8.1,4.4c0,0.2,0.1,0.3,0.1,0.5l0.1,0.5c3.6,13.2,13.4,28.3,29.2,27.5
				c6-0.2,11.6-3,15.5-7.5c8.7-9.9,12.5-31.5,11.7-42.4c-0.3-2.9,1.7-5.5,4.6-5.8c2.9-0.3,5.5,1.7,5.8,4.6c0,0.1,0,0.3,0,0.4
				c1,12.1-0.3,38.1-12.2,51.8c-6.2,7.3-15.1,11.6-24.6,12C191.7,286.5,190.9,286.5,190.2,286.5z"/>
		</defs>
		<clipPath id="SVGID_00000051352869366098377660000000128711415071608483_">
			<use xlink:href="#SVGID_00000021821587462371446230000016908476217792587691_"  style="overflow:visible;"/>
		</clipPath>
		<g style="clip-path:url(#SVGID_00000051352869366098377660000000128711415071608483_);">
			<path class="st0" d="M223.6,217.9c-2.9,0.2-5,2.8-4.8,5.6c0.4,5.3-0.3,13.2-2.1,21c2.6-0.1,5.3,0.2,7.8,1
				c-0.6,7.5-3.2,14.7-7.6,20.9c-9.7,13.5-24.3,17.8-35.6,16.2c-5.1-0.7-10.9-3.4-15.8-6.1c6.6,6.5,15.5,10.1,24.8,10.1
				c0.7,0,1.4,0,2.2-0.1c9.5-0.4,18.4-4.7,24.6-12c11.9-13.6,13.2-39.7,12.2-51.8C229,219.8,226.5,217.6,223.6,217.9
				C223.6,217.9,223.6,217.9,223.6,217.9z"/>
			<path class="st9" d="M223.6,217.9c-2.9,0.2-5,2.8-4.8,5.6c0.4,5.3-0.3,13.2-2.1,21c2.6-0.1,5.3,0.2,7.8,1
				c-0.6,7.5-3.2,14.7-7.6,20.9c-9.7,13.5-24.3,17.8-35.6,16.2c-5.1-0.7-10.9-3.4-15.8-6.1c6.6,6.5,15.5,10.1,24.8,10.1
				c0.7,0,1.4,0,2.2-0.1c9.5-0.4,18.4-4.7,24.6-12c11.9-13.6,13.2-39.7,12.2-51.8C229,219.8,226.5,217.6,223.6,217.9
				C223.6,217.9,223.6,217.9,223.6,217.9z"/>
		</g>
	</g>
	<path class="st7" d="M190.2,286.5c-22.3,0-35.6-19.8-40.4-37.1l-0.2-0.6c-1-3.5,0.9-7.1,4.4-8.1c3.5-1,7.1,0.9,8.1,4.4
		c0,0.2,0.1,0.3,0.1,0.5l0.1,0.5c3.6,13.2,13.4,28.3,29.2,27.5c6-0.2,11.6-3,15.5-7.5c8.7-9.9,12.5-31.5,11.7-42.4
		c-0.3-2.9,1.7-5.5,4.6-5.8c2.9-0.3,5.5,1.7,5.8,4.6c0,0.1,0,0.3,0,0.4c1,12.1-0.3,38.1-12.2,51.8c-6.2,7.3-15.1,11.6-24.6,12
		C191.7,286.5,190.9,286.5,190.2,286.5z"/>
	<path class="st10" d="M177.4,273c0.5-2.5-5.3,1.4-10.2,5c1.8,1.5,3.8,2.9,5.8,4.1C174.7,279.2,176.9,275.3,177.4,273z"/>
	<path class="st10" d="M190.2,286.5c0.7,0,1.4,0,2.2-0.1c2.1-0.1,4.2-0.4,6.3-0.9c-2.8-3.6-6.6-8.4-7.6-8.7c-1.2-0.4-3.7,5.7-5,9.4
		C187.4,286.4,188.8,286.5,190.2,286.5z"/>
	<path class="st10" d="M162.4,245.9l-0.1-0.5c-0.8-3.5-4.3-5.8-7.8-5s-5.8,4.3-5,7.8c0,0.2,0.1,0.3,0.1,0.5l0.2,0.6
		c1.7,6.1,4.2,11.9,7.6,17.3l11.9-5.7C166.2,256.4,163.9,251.3,162.4,245.9z"/>
	<path class="st10" d="M217,274.4c0.9-1.1,1.8-2.2,2.5-3.3c-3.8-1.3-9.4-3.1-11.5-2.9c-2.5,0.2,0.9,8.2,2.6,12
		C212.9,278.6,215.1,276.6,217,274.4z"/>
	<path class="st10" d="M217.2,253.1c-0.4,0.8,4.5,4.4,7.8,6.6c1-3.1,1.9-6.3,2.5-9.5C223.5,251,217.6,252.3,217.2,253.1z"/>
	<path class="st10" d="M229.1,238.3c0.2-2.9,0.3-5.6,0.3-8.1c-3.4,1.9-7.5,4.5-7.5,6.2S225.8,238.4,229.1,238.3z"/>
	<path class="st0" d="M175.3,160.9c0,0-9.7,28.1-4.5,50c3.1,13,12.2,23.7,24.4,29.1c0,0-14.2,5-11,12.7s15.4,2.7,19.4,0.2
		s9-10,9.7-14.9c0.4-2.5,0.6-5.1,0.5-7.7c0,0,16.2-1.7,27.1-10.7c0,0,9.7,7.7,16.7,6.2s16.9-13.9,15.9-25.1s-7.5-11.2-11.4-9.5
		c-2,0.8-3.9,2-5.5,3.5c0,0,5.7-7,0-16.7c-3.4-5.7-9.3-9.6-15.9-10.4c0,0-3-15.9-11.9-21.9S188,133.5,175.3,160.9z"/>
	<g>
		<defs>
			<path id="SVGID_00000106838229916091571620000009531341522111454639_" d="M175.3,160.9c0,0-9.7,28.1-4.5,50
				c3.1,13,12.2,23.7,24.4,29.1c0,0-14.2,5-11,12.7s15.4,2.7,19.4,0.2s9-10,9.7-14.9c0.4-2.5,0.6-5.1,0.5-7.7
				c0,0,16.2-1.7,27.1-10.7c0,0,9.7,7.7,16.7,6.2s16.9-13.9,15.9-25.1s-7.5-11.2-11.4-9.5c-2,0.8-3.9,2-5.5,3.5c0,0,5.7-7,0-16.7
				c-3.4-5.7-9.3-9.6-15.9-10.4c0,0-3-15.9-11.9-21.9S188,133.5,175.3,160.9z"/>
		</defs>
		<clipPath id="SVGID_00000135652180351830551210000009282841505190132865_">
			<use xlink:href="#SVGID_00000106838229916091571620000009531341522111454639_"  style="overflow:visible;"/>
		</clipPath>
		<g style="clip-path:url(#SVGID_00000135652180351830551210000009282841505190132865_);">
			<path class="st0" d="M249.2,170.6c-9.4,15.6-25.7,25.8-43.9,27.2c-19.8,1.7-30.9-2.2-36-4.9c0.6-10.9,2.6-21.6,6-32
				c12.7-27.4,44.5-21.1,53.5-15.2s11.9,21.9,11.9,21.9C243.8,168,246.6,169,249.2,170.6z M262.1,191.2c-2,0.8-3.9,2-5.5,3.5
				c1.2-1.7,2-3.6,2.3-5.6c-13.5,6.7-12.4,21-14.1,21c-2.1,0-3.1-7.2-3.1-7.2s-2.6,10.3-18,17.5s-32.9,1.5-32.9,1.5s3.6,8.2-5.6,7.2
				c-2.6-0.2-5.1-1.2-7.2-2.6c4.4,5.9,10.3,10.6,17.1,13.5c0,0-14.2,5-11,12.7s15.4,2.7,19.4,0.2s9-10,9.7-14.9
				c0.4-2.5,0.6-5.1,0.5-7.7c0,0,16.2-1.7,27.1-10.7c0,0,9.7,7.7,16.7,6.2s16.9-13.9,15.9-25.1S266.1,189.5,262.1,191.2z"/>
			<path class="st9" d="M249.2,170.6c-9.4,15.6-25.7,25.8-43.9,27.2c-19.8,1.7-30.9-2.2-36-4.9c0.6-10.9,2.6-21.6,6-32
				c12.7-27.4,44.5-21.1,53.5-15.2s11.9,21.9,11.9,21.9C243.8,168,246.6,169,249.2,170.6z M262.1,191.2c-2,0.8-3.9,2-5.5,3.5
				c1.2-1.7,2-3.6,2.3-5.6c-13.5,6.7-12.4,21-14.1,21c-2.1,0-3.1-7.2-3.1-7.2s-2.6,10.3-18,17.5s-32.9,1.5-32.9,1.5s3.6,8.2-5.6,7.2
				c-2.6-0.2-5.1-1.2-7.2-2.6c4.4,5.9,10.3,10.6,17.1,13.5c0,0-14.2,5-11,12.7s15.4,2.7,19.4,0.2s9-10,9.7-14.9
				c0.4-2.5,0.6-5.1,0.5-7.7c0,0,16.2-1.7,27.1-10.7c0,0,9.7,7.7,16.7,6.2s16.9-13.9,15.9-25.1S266.1,189.5,262.1,191.2z"/>
			<path class="st7" d="M213.8,230.3c-10.9,0.3-21.3-4.5-28.1-12.9"/>
		</g>
	</g>
	<path class="st7" d="M175.3,160.9c0,0-9.7,28.1-4.5,50c3.1,13,12.2,23.7,24.4,29.1c0,0-14.2,5-11,12.7s15.4,2.7,19.4,0.2
		s9-10,9.7-14.9c0.4-2.5,0.6-5.1,0.5-7.7c0,0,16.2-1.7,27.1-10.7c0,0,9.7,7.7,16.7,6.2s16.9-13.9,15.9-25.1s-7.5-11.2-11.4-9.5
		c-2,0.8-3.9,2-5.5,3.5c0,0,5.7-7,0-16.7c-3.4-5.7-9.3-9.6-15.9-10.4c0,0-3-15.9-11.9-21.9S188,133.5,175.3,160.9z"/>
	<path class="st7" d="M256.6,194.8c0,0-5.2,3.5-7.7,14.2"/>
	<path class="st10" d="M266.2,199.3c-0.6,1.8-2.3,2.9-3.7,2.4s-2.1-2.4-1.5-4.2s2.3-2.9,3.7-2.4S266.9,197.5,266.2,199.3z"/>
	<path class="st10" d="M271.4,202.6c-0.6,1.8-2.3,2.9-3.7,2.4s-2.1-2.4-1.5-4.2s2.3-2.9,3.7-2.4S272,200.8,271.4,202.6z"/>
	<path class="st10" d="M272.5,207.4c-0.6,1-1.8,1.3-2.8,0.7s-1.3-1.8-0.7-2.8c0.5-0.8,1.5-1.2,2.4-0.9
		C272.5,205,273,206.3,272.5,207.4z"/>
	<path class="st10" d="M265.9,214.1c-1.8,3.2-5.4,4.7-8,3.2s-3.3-5.3-1.5-8.5s5.4-4.7,8-3.2S267.7,210.8,265.9,214.1z"/>
	<path class="st7" d="M195.2,240c3.4,1.6,7.2,1.8,10.7,0.8"/>
	<path class="st7" d="M184.2,252.7c0,0,1-4.2,7.2-7.2"/>
	<path class="st7" d="M190.5,256.5c0,0,2.5-6,6.7-8.7"/>
	<path class="st3" d="M92.3,187.6c-2.1-1.7-3.3-4.3-3.2-7.1v-23.7H27.9c-3,0.1-5.9-1.1-8-3.3c-2-2.1-3.1-4.9-3.1-7.8
		c0-2.4,0.7-4.7,2-6.6L77.5,47c4.4-6.8,10.2-10.2,17.5-10.2c3.9-0.1,7.7,1.2,10.7,3.8c2.9,2.5,4.3,6.2,4.3,11.2v89.5h15.6
		c2.2-0.1,4.3,0.7,5.8,2.3c2.7,3.2,2.7,7.9,0,11.1c-1.5,1.6-3.6,2.4-5.8,2.3h-15.7v23.7c0.1,2.7-1,5.3-3.1,7.1
		c-2,1.7-4.6,2.6-7.2,2.6C97,190.2,94.4,189.3,92.3,187.6z M89.1,141.2V58.8l-51.3,82.4H89.1z"/>
	<path class="st3" d="M177.2,188.1c-6-2.6-11.3-6.6-15.5-11.6c-4.2-5.3-7.5-11.3-9.8-17.6c-2.5-6.9-4.3-14.1-5.3-21.4
		c-1-7.9-1.5-15.9-1.5-23.9c0-52.7,18-79.1,54-79.1s54,26.4,53.9,79.1c0,8-0.4,15.9-1.5,23.8c-1,7.3-2.7,14.4-5.3,21.4
		c-2.2,6.4-5.5,12.4-9.8,17.6c-4.2,5-9.5,9-15.5,11.6c-6.9,3-14.4,4.5-21.9,4.4C191.6,192.6,184.1,191.1,177.2,188.1z M209.8,173
		c3-1.3,5.7-3.1,8-5.5c2.3-2.5,4.3-5.3,5.7-8.4c1.6-3.3,2.9-6.7,3.8-10.2c1-3.8,1.7-7.7,2.2-11.6c0.5-4.3,0.9-8.3,1.1-11.9
		c0.2-3.6,0.3-7.5,0.3-11.8c0-4.4-0.1-8.5-0.3-12.3c-0.2-3.8-0.5-7.8-1.1-12.1c-0.5-3.9-1.2-7.8-2.2-11.6c-0.9-3.5-2.2-6.8-3.8-10.1
		c-1.4-3-3.4-5.8-5.7-8.3c-2.3-2.3-5-4.1-8-5.3c-6.8-2.6-14.4-2.6-21.2,0c-3,1.2-5.7,3-7.9,5.3c-2.3,2.4-4.2,5.2-5.7,8.2
		c-1.6,3.2-2.9,6.6-3.8,10c-1,3.9-1.7,7.8-2.2,11.7c-0.6,4.4-1,8.4-1.1,12.2s-0.3,7.9-0.3,12.3c0,4.2,0.1,8.2,0.3,11.8
		c0.2,3.6,0.5,7.6,1.1,12c0.5,3.9,1.2,7.8,2.2,11.6c0.9,3.5,2.2,6.9,3.8,10.2c1.4,3.1,3.3,5.9,5.6,8.4c2.3,2.3,5,4.2,8,5.4
		C195.2,175.8,202.9,175.8,209.8,173L209.8,173z"/>
	<path class="st3" d="M345.6,187.6c-2.1-1.7-3.3-4.3-3.2-7.1v-23.7h-61.2c-3,0.1-5.9-1.1-8-3.3c-2-2.1-3.1-4.9-3.1-7.8
		c0-2.4,0.7-4.7,2-6.6L330.8,47c4.4-6.8,10.2-10.2,17.5-10.2c3.9-0.1,7.8,1.2,10.8,3.8c2.9,2.5,4.3,6.2,4.3,11.2v89.5h15.6
		c2.2-0.1,4.3,0.7,5.8,2.3c2.7,3.2,2.7,7.9,0,11.1c-1.5,1.6-3.6,2.4-5.8,2.3h-15.7v23.7c0.1,2.7-1,5.3-3.1,7.1
		c-2,1.7-4.6,2.6-7.2,2.6C350.3,190.2,347.7,189.3,345.6,187.6z M342.4,141.2V58.8l-51.3,82.4H342.4z"/>
	<path class="st0" d="M155.1,146.7c0,0-10.4,14.7-11.9,29.6s0.2,24.9,4.7,28.6s8.9,2.2,11.4-1.2s-1.5-15.7-1.5-15.7
		s4.2-11.7,10.7-19.9s7.7-9.5,7.7-9.5S165.1,146,155.1,146.7z"/>
	<g>
		<defs>
			<path id="SVGID_00000134960216045297451550000008996313421043028662_" d="M155.1,146.7c0,0-10.4,14.7-11.9,29.6
				s0.2,24.9,4.7,28.6s8.9,2.2,11.4-1.2s-1.5-15.7-1.5-15.7s4.2-11.7,10.7-19.9s7.7-9.5,7.7-9.5S165.1,146,155.1,146.7z"/>
		</defs>
		<clipPath id="SVGID_00000159464245945186517890000000178273410238187158_">
			<use xlink:href="#SVGID_00000134960216045297451550000008996313421043028662_"  style="overflow:visible;"/>
		</clipPath>
		<g style="clip-path:url(#SVGID_00000159464245945186517890000000178273410238187158_);">
			<path class="st0" d="M155.1,146.7c-2.3,3.4-4.3,6.9-6.1,10.6c5,2,12.8,6.1,17.7,13.4c0.6-0.9,1.2-1.7,1.9-2.5
				c6.5-8.2,7.7-9.5,7.7-9.5S165.1,146,155.1,146.7z"/>
			<path class="st9" d="M155.1,146.7c-2.3,3.4-4.3,6.9-6.1,10.6c5,2,12.8,6.1,17.7,13.4c0.6-0.9,1.2-1.7,1.9-2.5
				c6.5-8.2,7.7-9.5,7.7-9.5S165.1,146,155.1,146.7z"/>
		</g>
	</g>
	<path class="st7" d="M155.1,146.7c0,0-10.4,14.7-11.9,29.6s0.2,24.9,4.7,28.6s8.9,2.2,11.4-1.2s-1.5-15.7-1.5-15.7
		s4.2-11.7,10.7-19.9s7.7-9.5,7.7-9.5S165.1,146,155.1,146.7z"/>
	<path class="st7" d="M147.9,205c-1.2-3.3-1.8-6.7-1.8-10.2"/>
	<path class="st7" d="M154.6,206.5c0,0-2.5-4.2-2.7-11.4"/>
	<path class="st10" d="M158.4,173.4c0-2.6-5-7.7-11.9-10c-0.9,2.4-1.7,4.9-2.3,7.5c2.7,0.5,5.3,1.3,7.8,2.5
		C155.6,175.3,158.4,176.3,158.4,173.4z"/>
	<path class="st10" d="M154.5,147.6c-1.6,2.5-3.1,5-4.4,7.6c2.1,0.6,4.1,1.4,6,2.5c7.7,4.5,9.2,5,6.7-1.5
		C161.3,152.2,157.7,149.4,154.5,147.6z"/>
	<path class="st0" d="M237,139.5c0,0,11.8,13.6,14.8,28.3s2.2,24.8-1.9,28.9s-8.7,3.1-11.5-0.1s0-15.7,0-15.7s-5.4-11.2-12.6-18.8
		s-8.6-8.6-8.6-8.6S227,139.7,237,139.5z"/>
	<g>
		<defs>
			<path id="SVGID_00000006689216918264188860000000088065271741824663_" d="M237,139.5c0,0,11.8,13.6,14.8,28.3s2.2,24.8-1.9,28.9
				s-8.7,3.1-11.5-0.1s0-15.7,0-15.7s-5.4-11.2-12.6-18.8s-8.6-8.6-8.6-8.6S227,139.7,237,139.5z"/>
		</defs>
		<clipPath id="SVGID_00000176016179013674773420000004649217709773678219_">
			<use xlink:href="#SVGID_00000006689216918264188860000000088065271741824663_"  style="overflow:visible;"/>
		</clipPath>
		<g style="clip-path:url(#SVGID_00000176016179013674773420000004649217709773678219_);">
			<path class="st0" d="M237,139.5c-10,0.2-19.9,14-19.9,14s1.4,1.1,8.6,8.6c1.4,1.4,2.6,2.9,3.8,4.5c3.8-6.4,9.2-11.7,15.7-15.3
				C242.8,147.2,240.1,143.2,237,139.5z"/>
			<path class="st9" d="M237,139.5c-10,0.2-19.9,14-19.9,14s1.4,1.1,8.6,8.6c1.4,1.4,2.6,2.9,3.8,4.5c3.8-6.4,9.2-11.7,15.7-15.3
				C242.8,147.2,240.1,143.2,237,139.5z"/>
		</g>
	</g>
	<path class="st7" d="M237,139.5c0,0,11.8,13.6,14.8,28.3s2.2,24.8-1.9,28.9s-8.7,3.1-11.5-0.1s0-15.7,0-15.7s-5.4-11.2-12.6-18.8
		s-8.6-8.6-8.6-8.6S227,139.7,237,139.5z"/>
	<path class="st7" d="M249.9,196.7c0.9-3.4,1.1-6.9,0.7-10.3"/>
	<path class="st7" d="M243.3,198.9c0,0,2.1-4.4,1.6-11.7"/>
	<path class="st10" d="M236.4,166.3c-0.2-2.6,4.2-8.2,10.9-11.1c1.2,2.3,2.2,4.7,3,7.2c-2.6,0.7-5.2,1.8-7.5,3.2
		C239.3,168,236.7,169.2,236.4,166.3z"/>
	<path class="st10" d="M237.7,140.3c1.8,2.3,3.6,4.6,5.1,7.1c-2,0.8-4,1.8-5.8,3.1c-7.2,5.2-8.7,5.9-6.8-0.8
		C231.4,145.5,234.6,142.4,237.7,140.3z"/>
	<path class="st0" d="M154.1,134c0,0-3.1,10.4-1.9,14.6s6.5,0.4,11.9,5s10.4,12.9,30.8,14.5s32.7-9.5,37-15.6s3.9-13.5,11.2-13.9
		s1.2-14.6-1.1-16.9c0,0,14.2-21.2,14.2-26.6s-13.5-4.2-30,0.8c0,0-12.3-6.6-34.6-2.7s-28.9,10.4-28.9,10.4s-27.7,3.5-29.6,6.9
		S136.8,128.6,154.1,134z"/>
	<g>
		<defs>
			<path id="SVGID_00000139295348579713851050000005588889591693053886_" d="M154.1,134c0,0-3.1,10.4-1.9,14.6s6.5,0.4,11.9,5
				s10.4,12.9,30.8,14.5s32.7-9.5,37-15.6s3.9-13.5,11.2-13.9s1.2-14.6-1.1-16.9c0,0,14.2-21.2,14.2-26.6s-13.5-4.2-30,0.8
				c0,0-12.3-6.6-34.6-2.7s-28.9,10.4-28.9,10.4s-27.7,3.5-29.6,6.9S136.8,128.6,154.1,134z"/>
		</defs>
		<clipPath id="SVGID_00000102517312282847879940000006260546143754277052_">
			<use xlink:href="#SVGID_00000139295348579713851050000005588889591693053886_"  style="overflow:visible;"/>
		</clipPath>
		<g style="clip-path:url(#SVGID_00000102517312282847879940000006260546143754277052_);">
			<path class="st0" d="M243.1,138.7c7.3-0.4,1.2-14.6-1.1-16.9c0,0,2.7-4,5.8-9c-8.3-4.3-16.4-6.7-18.5-4.3c-4.6,5.2-2.1,15.2,0,25
				s-6.4,13.9-12.3,22.4s-14.4-0.9-14.4-0.9c-3,12.3-15.6,4.2-15.6,4.2c-9.7-3-26.2-12.7-22.8-19.4s4.2-13.1-1.7-18.6
				s-29.5-10.1-29.5-10.1l0,0c-1.2,4.2,4.8,17.8,21.4,23c0,0-3.1,10.4-1.9,14.6s6.5,0.4,11.9,5s10.4,12.9,30.8,14.5
				s32.7-9.5,37-15.6S235.7,139,243.1,138.7z"/>
			<path class="st9" d="M243.1,138.7c7.3-0.4,1.2-14.6-1.1-16.9c0,0,2.7-4,5.8-9c-8.3-4.3-16.4-6.7-18.5-4.3c-4.6,5.2-2.1,15.2,0,25
				s-6.4,13.9-12.3,22.4s-14.4-0.9-14.4-0.9c-3,12.3-15.6,4.2-15.6,4.2c-9.7-3-26.2-12.7-22.8-19.4s4.2-13.1-1.7-18.6
				s-29.5-10.1-29.5-10.1l0,0c-1.2,4.2,4.8,17.8,21.4,23c0,0-3.1,10.4-1.9,14.6s6.5,0.4,11.9,5s10.4,12.9,30.8,14.5
				s32.7-9.5,37-15.6S235.7,139,243.1,138.7z"/>
			<path class="st0" d="M213,141c0.3,2.4-5.1,5.1-12.1,5.9s-12.8-0.5-13.1-3s5.1-5.1,12.1-5.9S212.7,138.5,213,141z"/>
			<path class="st9" d="M213,141c0.3,2.4-5.1,5.1-12.1,5.9s-12.8-0.5-13.1-3s5.1-5.1,12.1-5.9S212.7,138.5,213,141z"/>
		</g>
	</g>
	<path class="st2" d="M154.1,134c0,0-3.1,10.4-1.9,14.6s6.5,0.4,11.9,5s10.4,12.9,30.8,14.5s32.7-9.5,37-15.6s3.9-13.5,11.2-13.9
		s1.2-14.6-1.1-16.9c0,0,14.2-21.2,14.2-26.6s-13.5-4.2-30,0.8c0,0-12.3-6.6-34.6-2.7s-28.9,10.4-28.9,10.4s-27.7,3.5-29.6,6.9
		S136.8,128.6,154.1,134z"/>
	<path class="st4" d="M233.8,103.2c-10,6.7-6.5,13.4-2,17.2c2.7,2.3,7.1,2,10.1,1.4l0,0c0,0,14.2-21.2,14.2-26.6
		C256.1,95.2,243.7,96.5,233.8,103.2z"/>
	<path class="st4" d="M132.8,111c-1.2,4.2,4.8,17.8,21.4,23c0,0,12.7-1.2,8.4-11.4C158.6,113.1,138.7,110.7,132.8,111z"/>
	<path class="st4" d="M191.5,93.2c-1.3,0.2-2.6,0.5-3.8,0.7c2,10.1,5.3,26.9,8.2,26.9s5.2-18.4,6.1-28.8
		C198.5,92.2,195,92.6,191.5,93.2z"/>
	<path class="st4" d="M180,117.9c3.1-1.8,2.6-15.3,2.1-22.7c-3.2,0.8-6.3,1.8-9.3,2.9C173.9,105,176.7,119.8,180,117.9z"/>
	<path class="st4" d="M209.6,111.6c3.1,1.1,4.9-10.1,5.9-18.8c-3.2-0.5-6.4-0.8-9.6-0.8C205.8,99.1,206.2,110.5,209.6,111.6z"/>
	<path class="st10" d="M205.4,150.6c-2.9-0.8-6-0.4-8.7,1.1c-0.4,0.2-0.6,0.8-0.3,1.2c0,0.1,0.1,0.1,0.2,0.2l5.3,5
		c0.3,0.3,0.9,0.3,1.2,0c0.1-0.1,0.1-0.1,0.2-0.2l2.7-6c0.2-0.4,0-0.9-0.5-1.1C205.5,150.6,205.5,150.6,205.4,150.6z"/>
	<path class="st3" d="M192.8,142.2c0.7,1.9,0.4,3.8-0.6,4.2s-2.6-0.8-3.3-2.7s-0.4-3.8,0.6-4.2S192.1,140.3,192.8,142.2z"/>
	<path class="st3" d="M207.3,140.9c-0.4,2,0.2,3.9,1.4,4.1s2.4-1.2,2.8-3.3s-0.2-3.8-1.4-4.1S207.7,138.8,207.3,140.9z"/>
	<path class="st7" d="M203.3,157.7c0,0-7.1,9.6-13.6-0.1"/>
	<path class="st7" d="M201.9,158c0,0,4.7,4.9,9.7,2.1s2-7,2-7"/>
	<path class="st15" d="M180.3,134.5c0,0,1.7-6.2,9.9-4.7"/>
	<path class="st15" d="M205.1,128.8c0,0,6.2-3.7,11.9,2.2"/>
	<line class="st16" x1="175.5" y1="151.2" x2="181.5" y2="152.7"/>
	<line class="st16" x1="180.7" y1="154.9" x2="175.5" y2="155.9"/>
	<line class="st16" x1="181.7" y1="157.7" x2="178" y2="159.7"/>
	<line class="st16" x1="219.6" y1="148.5" x2="224.8" y2="147.2"/>
	<line class="st16" x1="220.6" y1="151" x2="224" y2="151"/>
	<line class="st16" x1="221.3" y1="153.5" x2="226" y2="154.7"/>
</g>
</svg>
