<?xml version="1.0" encoding="UTF-8"?>
<svg xmlns="http://www.w3.org/2000/svg" viewBox="0 0 500 500">
  <defs>
    <style>
      .cls-1, .cls-2, .cls-3, .cls-4, .cls-5, .cls-6 {
        fill: none;
      }

      .cls-2 {
        opacity: .3;
      }

      .cls-7 {
        fill: #263238;
      }

      .cls-7, .cls-8, .cls-3, .cls-4, .cls-6 {
        stroke-linecap: round;
        stroke-linejoin: round;
      }

      .cls-7, .cls-8, .cls-4, .cls-6 {
        stroke: #263238;
      }

      .cls-8 {
        fill: #fff;
      }

      .cls-3 {
        stroke: #000;
      }

      .cls-5 {
        opacity: .7;
      }

      .cls-6 {
        stroke-width: 3px;
      }
    </style>
  </defs>
  <g id="Background_Simple" data-name="Background Simple">
    <g>
      <path class="cls-1" d="m330.49,47.67s-80.24-29.89-158.07,15.1C94.58,107.77,56.15,198.56,23.08,271.25c-33.07,72.7-12.59,147.32,47.69,182,60.27,34.67,100.35-14.81,184.29-16.18,83.94-1.37,106.67,11.12,175.74-36.24,69.08-47.36,80.26-161.12,24.25-246.11-56.01-84.99-124.57-107.04-124.57-107.04Z"/>
      <path class="cls-5" d="m330.49,47.67s-80.24-29.89-158.07,15.1C94.58,107.77,56.15,198.56,23.08,271.25c-33.07,72.7-12.59,147.32,47.69,182,60.27,34.67,100.35-14.81,184.29-16.18,83.94-1.37,106.67,11.12,175.74-36.24,69.08-47.36,80.26-161.12,24.25-246.11-56.01-84.99-124.57-107.04-124.57-107.04Z"/>
    </g>
  </g>
  <g id="Graphics">
    <g class="cls-2">
      <rect class="cls-3" x="392.69" y="287.68" width="19.31" height="19.31" transform="translate(-92.41 371.59) rotate(-45)"/>
      <rect class="cls-3" x="98.18" y="46.35" width="19.31" height="19.31" transform="translate(-8.02 92.65) rotate(-45)"/>
      <rect class="cls-3" x="77.05" y="329.55" width="11.94" height="11.94" transform="translate(-212.93 156.98) rotate(-45)"/>
      <rect class="cls-3" x="29.33" y="192.52" width="11.94" height="11.94" transform="translate(-130.01 83.1) rotate(-45)"/>
      <rect class="cls-3" x="374.53" y="94.79" width="11.94" height="11.94" transform="translate(40.2 298.57) rotate(-45)"/>
      <rect class="cls-3" x="93.46" y="339.98" width="16.98" height="16.98" transform="translate(-216.54 174.16) rotate(-45)"/>
      <rect class="cls-3" x="335.43" y="326.14" width="11.94" height="11.94" transform="translate(-134.84 338.68) rotate(-45)"/>
      <rect class="cls-3" x="394.75" y="79.81" width="22.85" height="22.85" transform="translate(54.45 313.93) rotate(-45)"/>
      <rect class="cls-3" x="227.04" y="459.08" width="11.94" height="11.94" transform="translate(-260.6 300.97) rotate(-45)"/>
      <circle class="cls-3" cx="64.88" cy="189.63" r="12.27"/>
      <circle class="cls-3" cx="420.75" cy="227.8" r="11.59"/>
      <circle class="cls-3" cx="462.33" cy="148.04" r="6.82"/>
      <path class="cls-3" d="m325.99,58.73c0-2.26-1.83-4.09-4.09-4.09s-4.09,1.83-4.09,4.09,1.83,4.09,4.09,4.09,4.09-1.83,4.09-4.09Z"/>
      <circle class="cls-3" cx="154.19" cy="291.89" r="4.09"/>
      <circle class="cls-3" cx="57.38" cy="401.65" r="6.14"/>
      <path class="cls-3" d="m428.93,391.42c0-3.01-2.44-5.45-5.45-5.45s-5.45,2.44-5.45,5.45,2.44,5.45,5.45,5.45,5.45-2.44,5.45-5.45Z"/>
      <path class="cls-3" d="m385.3,38.96c0-3.01-2.44-5.45-5.45-5.45s-5.45,2.44-5.45,5.45,2.44,5.45,5.45,5.45,5.45-2.44,5.45-5.45Z"/>
    </g>
  </g>
  <g id="Lines">
    <g>
      <line class="cls-6" x1="167.14" y1="248.26" x2="128.28" y2="269.39"/>
      <line class="cls-6" x1="93.51" y1="133.04" x2="135.1" y2="149.4"/>
      <line class="cls-6" x1="143.28" y1="40.32" x2="169.87" y2="83.27"/>
      <line class="cls-6" x1="233.95" y1="21.23" x2="232.59" y2="55.32"/>
      <line class="cls-6" x1="311.67" y1="102.36" x2="346.44" y2="67.59"/>
      <line class="cls-6" x1="360.07" y1="172.58" x2="390.07" y2="162.36"/>
      <line class="cls-6" x1="331.44" y1="248.94" x2="356.66" y2="263.25"/>
      <line class="cls-6" x1="134.42" y1="101.68" x2="154.87" y2="117.36"/>
      <line class="cls-6" x1="354.62" y1="131" x2="332.8" y2="141.22"/>
      <line class="cls-6" x1="141.91" y1="205.31" x2="118.73" y2="212.12"/>
      <line class="cls-6" x1="340.98" y1="214.17" x2="351.89" y2="216.9"/>
    </g>
  </g>
  <g id="Hand_2" data-name="Hand 2">
    <g>
      <path class="cls-8" d="m350.32,173.58c-3.85-2.67-18.38-.3-27.57,7.11-9.19,7.41-11.26,10.08-11.26,10.08,0,0-4.15-29.05-4.15-29.94s-5.93-55.43-7.11-63.43c-1.19-8-2.96-19.86-4.74-22.53-1.78-2.67-8.89-2.96-11.26-1.78l-2.37,1.19s1.19-20.75-1.19-25.79c-2.37-5.04-9.78-2.07-11.86.59-2.07,2.67-3.56,6.82-3.56,6.82,0,0-6.82-2.37-10.67,5.34-3.85,7.71-6.82,14.52-7.41,21.93s-3.85,16.9-3.85,16.9c0,0-3.85-6.22-8-2.67-4.15,3.56-8.89,17.49-10.08,27.57-1.19,10.08-2.37,36.75-2.37,36.75,0,0-2.37,12.15-3.56,21.93-1.19,9.78-.3,50.39,4.15,67.28,4.45,16.9,10.37,27.57,10.37,27.57,0,0,10.37,34.09,11.86,38.83,1.48,4.74,17.78,69.36,17.78,69.36l48.61-61.65s-12.15-33.49-14.82-41.2c-2.67-7.71-4.45-10.08-4.45-10.08,0,0,14.82-21.05,22.82-27.27,8-6.22,12.15-26.97,14.23-36.16,2.07-9.19,10.67-21.93,15.41-26.08,4.74-4.15,8.89-8,5.04-10.67Zm-109.67-14.23c-.89,0-.59-11.56-.59-25.49s2.37-20.16,2.37-20.16c-1.19,6.22,1.19,37.05,1.19,39.13s-2.07,6.52-2.96,6.52Z"/>
      <path class="cls-4" d="m285.47,278.83c3.71-1.88,4.38-3.88,4.38-3.88"/>
      <path class="cls-4" d="m256.35,271.99s16.3,10.67,24.31,8.6"/>
      <path class="cls-4" d="m311.49,190.77s-6.22,9.78-7.71,13.34c-1.48,3.56-2.37,6.52-5.04,8-2.67,1.48-6.22,3.56-6.22,3.56"/>
      <path class="cls-4" d="m293.58,193.67c-7.54,3.5-18.15,9.69-24.18,18.74"/>
      <path class="cls-4" d="m302.3,190.18s-2.17.68-5.47,2.06"/>
      <path class="cls-4" d="m266.14,216.26s-5.34,9.78-7.71,17.49"/>
      <path class="cls-4" d="m265.25,55.9s-1.48,12.45-3.56,31.12c-2.07,18.67-3.26,27.86-2.96,39.72s3.56,22.23,3.26,23.71"/>
      <path class="cls-4" d="m281.85,74.28s-.89,7.71,0,17.78c.89,10.08-.89,28.75-.89,35.87s.3,17.78.59,21.04,2.07,5.63,2.07,5.63"/>
      <path class="cls-4" d="m287.48,156.39s1.48,2.67,11.26,2.96"/>
      <path class="cls-4" d="m264.95,149.27s7.11,1.48,11.86.59"/>
      <path class="cls-4" d="m239.16,161.72s0,2.96-8.6,5.63"/>
      <path class="cls-4" d="m256.06,153.72c.89-.59,4.45-1.78,5.34-5.93"/>
      <path class="cls-4" d="m256.57,199.12s18.43-6.76,30.1-9.22"/>
      <path class="cls-7" d="m308.89,499.14h159.34c-11.13-14.69-51.75-68.22-54.4-70.86-3.07-3.07-16.59-4.91-16.59-4.91l-39.93-33.17-49.76-82.32-47.3,65.73-7.99-31.95-17.82,66.35s64.51,78.64,66.96,81.71c.48.6,3.26,4.12,7.48,9.43Z"/>
    </g>
  </g>
  <g id="Hand_1" data-name="Hand 1">
    <g>
      <path class="cls-8" d="m184.12,268.68s-13.19-33.78-16.37-40-20.44-33.23-21.31-40.56c-.87-7.33-3.57-19.52-6.35-24.62-2.78-5.1,5.5-8.44,12.35-1.98,6.84,6.46,10.98,16.97,10.89,20s15.36,14.35,15.36,14.35l2.81-26.04s3-64.59,2.37-74.23c-.63-9.64-1.25-30.11,6.4-30.9,7.65-.79,8.84,5.26,8.84,5.26,0,0,.27-15.25,8.78-14.27,6.5.75,8.99,6.88,9.94,9.83.95,2.95,2.07,6.61,2.07,6.61,0,0,5.36-3.64,10.59,5.03,3,4.98,9.38,20.64,10.41,24.62s1.35,5.42,1.35,5.42c0,0,7.17-.23,10.35,7.34,3.18,7.57,7.7,27.32,12.07,43.66s4.19,31.86,4.19,31.86c0,0,1.71,52.57-1.81,69.29-3.52,16.72-10.14,30.97-11.5,32.33s-20.92,59.08-20.92,59.08l-67.84-25.15s14.13-34.71,16.36-42.28c2.24-7.56.97-14.65.97-14.65Z"/>
      <path class="cls-8" d="m169.92,219.4c.14,3.31.85,5.3.85,5.3"/>
      <path class="cls-8" d="m176.61,198.74s-3.83,4.46-5.82,12.42c-.4,1.6-.64,3.1-.77,4.48"/>
      <path class="cls-8" d="m199.1,69.98s1.18,20.95,1.96,31.3c.79,10.35,1.17,26.36,1.24,36.88.07,10.51-1.21,23.73-1.93,26.6s-2.32,6.53-2.32,6.53"/>
      <path class="cls-8" d="m219.89,72.15s-3.35,3.9-2.24,8.92c1.11,5.02,6.26,33.06,6.26,37.12,0,4.06.29,39.34.36,41.73.08,2.39-1.6,10.43-2.4,13.62"/>
      <path class="cls-8" d="m242.24,107.21s-3.82.39-2.95,6.37,2.77,25.41,2.76,30.82c0,5.42,1.26,17.92,1.01,29.71-.25,11.79,2.46,15.85,3.73,18.88"/>
      <path class="cls-8" d="m183.24,185.85s-1.36,6.77.47,10.27c1.83,3.51,4.37,10.91,4.37,14.98"/>
      <path class="cls-8" d="m196.94,182.51s-.72,5.57.07,9.16,3.26,7.25,3.26,7.25"/>
      <path class="cls-8" d="m219.79,191.29s-.8,5.89.63,9.64c1.43,3.74,3.1,6.53,3.1,6.53"/>
      <g>
        <path class="cls-8" d="m189.02,499.14l63.07-142.31s-26.91-22.22-44.61-33.88c-17.7-11.66-38.93-11.31-38.93-11.31,0,0-27.71,59.05-29.16,62.81-1.46,3.76-20.78,43.77-20.78,43.77,0,0-8.49,3.03-12.26,9.81-2.95,5.32-24.24,51.41-33.31,71.11h115.98Z"/>
        <circle class="cls-8" cx="230.67" cy="361.08" r="5.88" transform="translate(-151.69 167.72) rotate(-30.6)"/>
        <path class="cls-8" d="m227.48,384.52c-.79,3.15-3.98,5.06-7.13,4.27-3.15-.79-5.06-3.98-4.27-7.13.79-3.15,3.98-5.06,7.13-4.27,3.15.79,5.06,3.98,4.27,7.13Z"/>
      </g>
    </g>
  </g>
</svg>